<svg xmlns:svg="http://www.w3.org/2000/svg" xmlns="http://www.w3.org/2000/svg" version="1.1" x="0"
    y="0" width="459.5" height="150" viewBox="0 0 459.5 150"
    enable-background="new 0 0 595.28 841.89" xml:space="preserve">
    <g transform="translate(-79.10464,-172.551)">
        <path d="m246.1 274.3c-2.6 0-5.3-0.2-6.6-0.5-0.6-0.1-0.9-0.4-0.9-1.1l0-20.4c0-0.7 0.3-1 0.9-1.1 1.3-0.2 4-0.5 6.6-0.5 6.1 0 9.8 3.2 9.8 9.7l0 4c0 6.5-3.7 9.7-9.8 9.7zm4.6-13.7c0-4.2-1.8-5.3-4.6-5.3-0.8 0-1.8 0-2.2 0.1l0 14.4c0.4 0 1.4 0.1 2.2 0.1 2.8 0 4.6-1.1 4.6-5.3l0-4zM273 273.9 273 273.9c-1.1 0.2-2.6 0.4-6 0.4-4 0-7.5-1-7.5-6.6l0-10.2c0-5.6 3.5-6.6 7.5-6.6 3.3 0 4.9 0.2 5.9 0.4 0.4 0.1 0.6 0.2 0.6 0.6l0 2.9c0 0.3-0.3 0.6-0.6 0.6l-6.3 0c-1.4 0-2 0.5-2 2.1l0 2.8 8 0c0.3 0 0.6 0.3 0.6 0.6l0 2.9c0 0.3-0.3 0.6-0.6 0.6l-8 0 0 3.3c0 1.6 0.5 2.1 2 2.1l6.3 0c0.3 0 0.6 0.3 0.6 0.6l0 2.9c0 0.4-0.2 0.6-0.6 0.6zM285.2 266c-0.7 0-1.7-0.1-2.5-0.1l0 7.5c0 0.3-0.3 0.6-0.6 0.6l-4 0c-0.3 0-0.6-0.2-0.6-0.6l0-20.7c0-1 0.4-1.3 1.4-1.5 1.6-0.2 4-0.4 6.3-0.4 4.7 0 9.2 1.6 9.2 7.4l0 0.3c0 5.8-4.6 7.5-9.2 7.5zm3.9-7.7c0-2.2-1.4-3-3.9-3-0.4 0-2.1 0.1-2.5 0.1l0 6.3c0.3 0 2.2 0.1 2.5 0.1 2.7 0 3.9-1 3.9-3.1l0-0.3zM311 273.9c-1.1 0.2-2.6 0.4-6 0.4-4 0-7.5-1-7.5-6.6l0-10.2c0-5.6 3.5-6.6 7.5-6.6 3.3 0 4.9 0.2 5.9 0.4 0.4 0.1 0.6 0.2 0.6 0.6l0 2.9c0 0.3-0.3 0.6-0.6 0.6l-6.3 0c-1.4 0-2 0.5-2 2.1l0 2.8 8 0c0.3 0 0.6 0.3 0.6 0.6l0 2.9c0 0.3-0.3 0.6-0.6 0.6l-8 0 0 3.3c0 1.6 0.5 2.1 2 2.1l6.3 0c0.3 0 0.6 0.3 0.6 0.6l0 2.9c0 0.4-0.2 0.6-0.6 0.6zM332.4 274l-3 0c-0.6 0-1.1-0.1-1.6-1l-7-12.1c-0.1-0.2-0.2-0.2-0.3-0.2-0.1 0-0.2 0.1-0.2 0.2l0 12.5c0 0.3-0.3 0.6-0.6 0.6l-3.6 0c-0.3 0-0.6-0.3-0.6-0.6l0-21.1c0-0.6 0.5-1.2 1.2-1.2l3.1 0c0.6 0 0.9 0.3 1.3 1l7.3 12.7c0.1 0.2 0.2 0.2 0.2 0.2 0.1 0 0.2-0.1 0.2-0.3l0-13c0-0.3 0.3-0.6 0.6-0.6l3.6 0c0.3 0 0.6 0.2 0.6 0.6l0 21.1c0 0.6-0.6 1.2-1.2 1.2zM345.4 274.3c-2.6 0-5.3-0.2-6.6-0.5-0.6-0.1-0.9-0.4-0.9-1.1l0-20.4c0-0.7 0.3-1 0.9-1.1 1.3-0.2 4-0.5 6.6-0.5 6.1 0 9.8 3.2 9.8 9.7l0 4c0 6.5-3.7 9.7-9.8 9.7zm4.6-13.7c0-4.2-1.8-5.3-4.6-5.3-0.8 0-1.8 0-2.2 0.1l0 14.4c0.4 0 1.4 0.1 2.2 0.1 2.8 0 4.6-1.1 4.6-5.3l0-4zM372.3 273.9c-1.1 0.2-2.6 0.4-6 0.4-4 0-7.5-1-7.5-6.6l0-10.2c0-5.6 3.5-6.6 7.5-6.6 3.3 0 4.9 0.2 5.9 0.4 0.4 0.1 0.6 0.2 0.6 0.6l0 2.9c0 0.3-0.3 0.6-0.6 0.6l-6.3 0c-1.4 0-2 0.5-2 2.1l0 2.8 8 0c0.3 0 0.6 0.3 0.6 0.6l0 2.9c0 0.3-0.3 0.6-0.6 0.6l-8 0 0 3.3c0 1.6 0.5 2.1 2 2.1l6.3 0c0.3 0 0.6 0.3 0.6 0.6l0 2.9c0 0.4-0.2 0.6-0.6 0.6zM393.7 274l-3 0c-0.6 0-1.1-0.1-1.6-1l-7-12.1c-0.1-0.2-0.2-0.2-0.3-0.2-0.1 0-0.2 0.1-0.2 0.2l0 12.5c0 0.3-0.3 0.6-0.6 0.6l-3.6 0c-0.3 0-0.6-0.3-0.6-0.6l0-21.1c0-0.6 0.5-1.2 1.2-1.2l3.1 0c0.6 0 0.9 0.3 1.3 1l7.3 12.7c0.1 0.2 0.2 0.2 0.2 0.2 0.1 0 0.2-0.1 0.2-0.3l0-13c0-0.3 0.3-0.6 0.6-0.6l3.6 0c0.3 0 0.6 0.2 0.6 0.6l0 21.1c0 0.6-0.6 1.2-1.2 1.2zM412.4 273.8c-0.6 0.2-2.4 0.5-4.6 0.5-4.7 0-9.1-2.5-9.1-9.8l0-3.9c0-7.3 4.4-9.8 9.1-9.8 2.2 0 3.9 0.3 4.6 0.5 0.4 0.1 0.7 0.2 0.7 0.7l0 3c0 0.4-0.2 0.6-0.6 0.6 0 0-0.1 0-0.1 0-1.2-0.1-2.9-0.2-4.6-0.2-2.1 0-3.8 1.1-3.8 5.2l0 3.9c0 4.1 1.7 5.2 3.8 5.2 1.7 0 3.4-0.2 4.6-0.2 0 0 0.1 0 0.1 0 0.4 0 0.6 0.2 0.6 0.6l0 3c0 0.4-0.2 0.6-0.7 0.7zM433.6 251.8l-4.7 10.7c-0.6 1.4-1.3 2.1-2 2.4l0 8.6c0 0.3-0.3 0.6-0.6 0.6l-4 0c-0.3 0-0.6-0.3-0.6-0.6l0-8.6c-0.7-0.3-1.4-1-2-2.4l-4.7-10.7c0-0.1 0-0.2 0-0.2 0-0.2 0.2-0.5 0.5-0.5l4.4 0c0.3 0 0.5 0.2 0.6 0.5l3.3 8.7c0.2 0.4 0.2 0.5 0.5 0.5 0.2 0 0.3-0.1 0.5-0.5l3.3-8.7c0.1-0.3 0.3-0.5 0.6-0.5l4.4 0c0.3 0 0.5 0.2 0.5 0.5 0 0.1 0 0.2 0 0.2zM442 266.5l-6 0c-0.3 0-0.6-0.2-0.6-0.6l0-2.5c0-0.3 0.3-0.6 0.6-0.6l6 0c0.3 0 0.6 0.2 0.6 0.6l0 2.5c0 0.3-0.3 0.6-0.6 0.6z" style="fill:#231f20;opacity:0.5"></path>
        <path d="m459 273.8c-0.6 0.2-2.4 0.5-4.6 0.5-4.7 0-9.1-2.5-9.1-9.8l0-3.9c0-7.3 4.4-9.8 9.1-9.8 2.2 0 3.9 0.3 4.6 0.5 0.4 0.1 0.7 0.2 0.7 0.7l0 3c0 0.4-0.2 0.6-0.6 0.6 0 0-0.1 0-0.1 0-1.2-0.1-2.9-0.2-4.6-0.2-2.1 0-3.8 1.1-3.8 5.2l0 3.9c0 4.1 1.7 5.2 3.8 5.2 1.7 0 3.4-0.2 4.6-0.2 0 0 0.1 0 0.1 0 0.4 0 0.6 0.2 0.6 0.6l0 3c0 0.4-0.2 0.6-0.7 0.7zM480.6 274l-4 0M480.6 274l-4 0c-0.3 0-0.6-0.3-0.6-0.6l0-8.9-7.6 0 0 8.9c0 0.3-0.3 0.6-0.6 0.6l-4 0c-0.3 0-0.6-0.3-0.6-0.6l0-21.7c0-0.3 0.3-0.6 0.6-0.6l4 0c0.3 0 0.6 0.2 0.6 0.6l0 8.2 7.6 0 0-8.2c0-0.3 0.3-0.6 0.6-0.6l4 0c0.3 0 0.6 0.2 0.6 0.6l0 21.7c0 0.3-0.3 0.6-0.6 0.6zM498.9 273.9c-1.1 0.2-2.6 0.4-6 0.4-4 0-7.5-1-7.5-6.6l0-10.2c0-5.6 3.5-6.6 7.5-6.6 3.3 0 4.9 0.2 5.9 0.4 0.4 0.1 0.6 0.2 0.6 0.6l0 2.9c0 0.3-0.3 0.6-0.6 0.6l-6.3 0c-1.4 0-2 0.5-2 2.1l0 2.8 8 0c0.3 0 0.6 0.3 0.6 0.6l0 2.9c0 0.3-0.3 0.6-0.6 0.6l-8 0 0 3.3c0 1.6 0.5 2.1 2 2.1l6.3 0c0.3 0 0.6 0.3 0.6 0.6l0 2.9c0 0.4-0.2 0.6-0.6 0.6zM516.6 273.8c-0.6 0.2-2.4 0.5-4.6 0.5-4.7 0-9.1-2.5-9.1-9.8l0-3.9c0-7.3 4.4-9.8 9.1-9.8 2.2 0 3.9 0.3 4.6 0.5 0.4 0.1 0.7 0.2 0.7 0.7l0 3c0 0.4-0.2 0.6-0.6 0.6 0 0-0.1 0-0.1 0-1.2-0.1-2.9-0.2-4.6-0.2-2.1 0-3.8 1.1-3.8 5.2l0 3.9c0 4.1 1.7 5.2 3.8 5.2 1.7 0 3.4-0.2 4.6-0.2 0 0 0.1 0 0.1 0 0.4 0 0.6 0.2 0.6 0.6l0 3c0 0.4-0.2 0.6-0.7 0.7zM538.5 251.9l-7.3 10.4 7.4 11.1c0.1 0.1 0.1 0.2 0.1 0.3 0 0.2-0.2 0.3-0.4 0.3l-5.3 0c-0.4 0-0.5-0.2-0.7-0.4l-6.3-10.2 0 10c0 0.3-0.3 0.6-0.6 0.6l-4 0c-0.3 0-0.6-0.3-0.6-0.6l0-21.7c0-0.3 0.3-0.6 0.6-0.6l4 0c0.3 0 0.6 0.2 0.6 0.6l0 9.8 6.8-10c0.2-0.2 0.3-0.4 0.7-0.4l4.7 0c0.3 0 0.5 0.2 0.5 0.3 0 0.1-0.1 0.3-0.2 0.4z" fill="#f78d0a"></path>
        <path d="m151.6 187.1 0-14.6c-36.7 5.4-65.9 33.9-72.2 70.4l14.7 0C100 214.5 122.8 192.2 151.6 187.1Z" style="fill:#231f20;opacity:0.5"></path>
        <path d="m151.6 200.4 0-13.3c-28.7 5.1-51.6 27.3-57.5 55.8l13.3 0c5.5-21.2 22.6-37.8 44.2-42.5z" style="fill:#231f20;opacity:0.3"></path>
        <path d="m193 237-10.9 10.9c0.3 0.6 0.7 1.2 1 1.9 1 2.5 1.5 5.3 1.5 8.2l0 0.2c0 3-0.5 5.8-1.5 8.2-1 2.5-2.4 4.6-4.2 6.4-1.8 1.8-3.9 3.2-6.4 4.2-2.5 1-5.3 1.5-8.3 1.5l-11.5 0 0-1-14.4 14.4 25.9 0c5.3 0 10.1-0.9 14.6-2.6 4.4-1.7 8.2-4.1 11.4-7.2 3.2-3 5.7-6.6 7.4-10.7 1.7-4.1 2.6-8.6 2.6-13.3l0-0.2c0-4.8-0.9-9.2-2.6-13.3-1.2-2.7-2.7-5.2-4.5-7.5z" fill="#f78d0a"></path>
        <path d="m152.7 237.6 11.5 0c3 0 5.8 0.5 8.3 1.5 2.5 1 4.7 2.4 6.4 4.2 1.3 1.3 2.3 2.9 3.2 4.6l10.9-10.9c-0.9-1.1-1.8-2.2-2.9-3.2-3.2-3-7-5.4-11.4-7.1-4.4-1.7-9.3-2.6-14.6-2.6l-26.4 0 0 67.7 0.5 0 14.4-14.4 0-39.8z" style="fill:#f78d0a;opacity:0.7"></path>
        <path d="m179.5 187.7 0 13.4c11.9 3.2 22.3 10.1 29.9 19.4l9.2-9.3c-10-11.7-23.6-20.1-39.2-23.5z" style="fill:#231f20;opacity:0.3"></path>
        <path d="m179.5 173 0 14.7c15.5 3.4 29.2 11.8 39.2 23.5l10.2-10.2c-12.6-14.3-29.8-24.5-49.4-28zM93.7 270.9l-14.6 0M93.7 270.9l-14.6 0c3.1 20.5 13.6 38.6 28.5 51.7l10.2-10.2C105.5 301.9 96.8 287.4 93.7 270.9Z" fill="#f78d0a"></path>
        <path d="m107 270.9-13.3 0c3.1 16.5 11.8 31 24.1 41.5l9.2-9.3c-9.9-8.1-17.1-19.3-20-32.2z" style="fill:#231f20;opacity:0.3">
        </path>
    </g>
</svg>
